<svg width="28.305664" height="28.305634" viewBox="0 0 28.3057 28.3056" fill="none" xmlns="http://www.w3.org/2000/svg" xmlns:xlink="http://www.w3.org/1999/xlink">
	<desc>
			Created with Pixso.
	</desc>
	<defs/>
	<path id="Icon metro-calculator" d="M11.3223 0L1.88721 0C0.849121 0 0 0.849182 0 1.88705L0 11.3222C0 12.3601 0.849121 13.2093 1.88721 13.2093L11.3223 13.2093C12.3604 13.2093 13.2095 12.3601 13.2095 11.3222L13.2095 1.88705C13.2095 0.849182 12.3604 0 11.3223 0ZM11.3223 7.54819L1.88721 7.54819L1.88721 5.66113L11.3223 5.66113L11.3223 7.54819ZM26.4185 0L16.9834 0C15.9453 0 15.0962 0.849182 15.0962 1.88705L15.0962 26.4186C15.0962 27.4565 15.9453 28.3056 16.9834 28.3056L26.4185 28.3056C27.4565 28.3056 28.3057 27.4565 28.3057 26.4186L28.3057 1.88705C28.3057 0.849182 27.4565 0 26.4185 0ZM26.4185 16.9834L16.9834 16.9834L16.9834 15.0963L26.4185 15.0963L26.4185 16.9834ZM26.4185 11.3222L16.9834 11.3222L16.9834 9.43521L26.4185 9.43521L26.4185 11.3222ZM11.3223 15.0963L1.88721 15.0963C0.849121 15.0963 0 15.9455 0 16.9834L0 26.4186C0 27.4565 0.849121 28.3056 1.88721 28.3056L11.3223 28.3056C12.3604 28.3056 13.2095 27.4565 13.2095 26.4186L13.2095 16.9834C13.2095 15.9455 12.3604 15.0963 11.3223 15.0963ZM11.3223 22.6445L7.54834 22.6445L7.54834 26.4186L5.66113 26.4186L5.66113 22.6445L1.88721 22.6445L1.88721 20.7575L5.66113 20.7575L5.66113 16.9834L7.54834 16.9834L7.54834 20.7575L11.3223 20.7575L11.3223 22.6445Z" fill-rule="nonzero" fill="#87C349"/>
</svg>
