<svg width="29.109863" height="27.290405" viewBox="0 0 29.1099 27.2904" fill="none" xmlns="http://www.w3.org/2000/svg" xmlns:xlink="http://www.w3.org/1999/xlink">
	<desc>
			Created with Pixso.
	</desc>
	<defs/>
	<path id="Icon metro-cart" d="M10.916 24.5614C10.916 26.0686 9.69434 27.2904 8.18701 27.2904C6.67969 27.2904 5.45801 26.0686 5.45801 24.5614C5.45801 23.0542 6.68018 21.8323 8.18701 21.8323C9.69434 21.8323 10.916 23.0542 10.916 24.5614ZM29.1099 24.5614C29.1099 26.0686 27.8882 27.2904 26.3809 27.2904C24.8735 27.2904 23.6519 26.0686 23.6519 24.5614C23.6519 23.0542 24.8735 21.8323 26.3809 21.8323C27.8882 21.8323 29.1099 23.0542 29.1099 24.5614ZM29.1099 12.7355L29.1099 1.81937L7.27734 1.81937C7.27734 0.814575 6.46289 0 5.45801 0L0 0L0 1.81937L3.63867 1.81937L5.00537 13.533C4.17236 14.1999 3.63867 15.2245 3.63867 16.3743C3.63867 18.384 5.26807 20.013 7.27734 20.013L29.1099 20.013L29.1099 18.1936L7.27734 18.1936C6.27246 18.1936 5.45801 17.3791 5.45801 16.3743L29.1099 12.7355Z" fill-rule="nonzero" fill="#87C349"/>
</svg>
