<svg width="30.809082" height="35.210480" viewBox="0 0 30.8091 35.2105" fill="none" xmlns="http://www.w3.org/2000/svg" xmlns:xlink="http://www.w3.org/1999/xlink">
	<desc>
			Created with Pixso.
	</desc>
	<defs/>
	<path id="Icon awesome-discord" d="M20.4395 16.725C20.4395 17.7989 19.6475 18.6792 18.644 18.6792C17.6582 18.6792 16.8481 17.7989 16.8481 16.725C16.8481 15.6511 17.6406 14.7708 18.644 14.7708C19.6475 14.7708 20.4395 15.6511 20.4395 16.725ZM12.2183 14.7708C11.2144 14.7708 10.4224 15.6511 10.4224 16.725C10.4224 17.7989 11.2319 18.6792 12.2183 18.6792C13.2217 18.6792 14.0137 17.7989 14.0137 16.725C14.0312 15.6511 13.2217 14.7708 12.2183 14.7708ZM30.8091 3.62668L30.8091 35.2105C26.374 31.291 27.7925 32.5884 22.6401 27.7987L23.5732 31.0556L3.60889 31.0556C1.61963 31.0556 0 29.4359 0 27.429L0 3.62668C0 1.61969 1.61963 0 3.60889 0L27.2002 0C29.1895 0 30.8091 1.61969 30.8091 3.62668ZM25.7915 20.3164C25.7915 14.6476 23.2563 10.0526 23.2563 10.0526C20.7212 8.15121 18.3096 8.20404 18.3096 8.20404L18.063 8.48572C21.0557 9.40121 22.4468 10.7216 22.4468 10.7216C18.2646 8.42953 13.3521 8.42914 9.29541 10.211C8.64404 10.5103 8.25684 10.7216 8.25684 10.7216C8.25684 10.7216 9.71826 9.33078 12.8872 8.41531L12.7109 8.20404C12.7109 8.20404 10.2988 8.15121 7.76367 10.0526C7.76367 10.0526 5.22852 14.6476 5.22852 20.3164C5.22852 20.3164 6.70752 22.8692 10.5981 22.9925C10.5981 22.9925 11.2495 22.2002 11.7778 21.5312C9.54199 20.8622 8.69678 19.4538 8.69678 19.4538C8.95605 19.6351 9.38281 19.8701 9.41895 19.894C12.3901 21.558 16.6113 22.1032 20.4043 20.5101C21.0205 20.2812 21.707 19.9467 22.4292 19.4714C22.4292 19.4714 21.5488 20.915 19.2427 21.5664C19.7705 22.2354 20.4043 22.9925 20.4043 22.9925C24.2954 22.8692 25.7915 20.3164 25.7915 20.3164Z" fill-rule="nonzero" fill="#87C349"/>
</svg>
