<svg width="28.000000" height="28.000000" viewBox="0 0 28 28" fill="none" xmlns="http://www.w3.org/2000/svg" xmlns:xlink="http://www.w3.org/1999/xlink">
	<desc>
			Created with Pixso.
	</desc>
	<defs/>
	<path id="矢量 3" d="M0 14C0 6.26807 6.26807 0 14 0C21.7319 0 28 6.26807 28 14C28 21.7319 21.7319 28 14 28C6.26807 28 0 21.7319 0 14Z" fill-rule="evenodd" fill="#FFFFFF"/>
	<path id="矢量 3" d="M15.6025 14.9805C15.6025 15.9937 14.7808 16.8154 13.7676 16.8154C12.7539 16.8154 11.9321 15.9937 11.9321 14.9805C11.9321 13.9668 12.7539 13.145 13.7676 13.145C14.7808 13.145 15.6025 13.9668 15.6025 14.9805Z" fill-rule="nonzero" fill="#87C349"/>
	<path id="矢量 3" d="M12.0469 9.24512L10.9971 10.3921L9.1792 10.3921C8.54834 10.3921 8.03223 10.9082 8.03223 11.5391L8.03223 18.4214C8.03223 19.0522 8.54834 19.5684 9.1792 19.5684L18.3555 19.5684C18.9863 19.5684 19.5024 19.0522 19.5024 18.4214L19.5024 11.5391C19.5024 10.9082 18.9863 10.3921 18.3555 10.3921L16.5376 10.3921L15.4878 9.24512L12.0469 9.24512ZM13.7676 17.8477C12.1846 17.8477 10.8999 16.563 10.8999 14.9805C10.8999 13.3975 12.1846 12.1128 13.7676 12.1128C15.3501 12.1128 16.6348 13.3975 16.6348 14.9805C16.6348 16.563 15.3501 17.8477 13.7676 17.8477Z" fill-rule="nonzero" fill="#87C349"/>
</svg>
