<svg xmlns="http://www.w3.org/2000/svg" width="24" height="24" viewBox="0 0 24 24">
  <g id="crown" transform="translate(-172 -380)">
    <path id="Vector" d="M10.75,1.5H.75A.755.755,0,0,1,0,.75.755.755,0,0,1,.75,0h10a.755.755,0,0,1,.75.75A.755.755,0,0,1,10.75,1.5Z" transform="translate(178.25 400.5)" fill="#77c430"/>
    <path id="Vector-2" data-name="Vector" d="M18.282,3.292l-4,2.86a1.007,1.007,0,0,1-1.52-.46L10.872.653A1,1,0,0,0,9,.653L7.1,5.682a.986.986,0,0,1-1.51.46l-4-2.86a1.008,1.008,0,0,0-1.53,1.16l4.16,11.65a.992.992,0,0,0,.94.66h9.53a1.006,1.006,0,0,0,.94-.66l4.16-11.65A.992.992,0,0,0,18.282,3.292Zm-5.85,9.23h-5a.75.75,0,0,1,0-1.5h5a.75.75,0,0,1,0,1.5Z" transform="translate(174.068 382.228)" fill="#77c430"/>
    <path id="Vector-3" data-name="Vector" d="M0,0H24V24H0Z" transform="translate(196 404) rotate(180)" fill="none" opacity="0"/>
  </g>
</svg>
