<svg id="box-tick" xmlns="http://www.w3.org/2000/svg" width="24" height="24" viewBox="0 0 24 24">
  <g id="Group" transform="translate(2 2.03)">
    <path id="Vector" d="M13.87,3.28,8.22.24a2.02,2.02,0,0,0-1.91,0L.67,3.28A1.32,1.32,0,0,0,0,4.43,1.277,1.277,0,0,0,.67,5.58L6.32,8.62a2.029,2.029,0,0,0,.95.24,2,2,0,0,0,.95-.24l5.65-3.04a1.3,1.3,0,0,0,.67-1.15A1.32,1.32,0,0,0,13.87,3.28Z" transform="translate(1.73)" fill="#77c430"/>
    <path id="Vector-2" data-name="Vector" d="M7.12,2.761,1.87.141A1.284,1.284,0,0,0,0,1.291v4.96a2.254,2.254,0,0,0,1.25,2.02l5.25,2.62a1.3,1.3,0,0,0,.58.14,1.4,1.4,0,0,0,.68-.19,1.3,1.3,0,0,0,.61-1.1V4.781A2.291,2.291,0,0,0,7.12,2.761Z" transform="translate(0 6.919)" fill="#77c430"/>
    <path id="Vector-3" data-name="Vector" d="M8.36,1.291v2.46a5.374,5.374,0,0,0-1.5-.2,6.015,6.015,0,0,0-3.74,1.31A5.914,5.914,0,0,0,.86,9.551,5.446,5.446,0,0,0,1.05,11a1.089,1.089,0,0,1-.44-.17A1.267,1.267,0,0,1,0,9.741V4.781a2.263,2.263,0,0,1,1.24-2.02L6.49.141a1.284,1.284,0,0,1,1.87,1.15Z" transform="translate(9.64 6.919)" fill="#77c430"/>
  </g>
  <path id="Vector-4" data-name="Vector" d="M0,0H24V24H0Z" fill="none" opacity="0"/>
  <path id="Vector-5" data-name="Vector" d="M7.98,1.65A4.49,4.49,0,0,0,1.69.99,4.448,4.448,0,0,0,0,4.5,4.5,4.5,0,0,0,.65,6.82,4.334,4.334,0,0,0,1.66,7.98h.01a4.454,4.454,0,0,0,5.79-.1,4.327,4.327,0,0,0,.89-1.06A4.5,4.5,0,0,0,9,4.5,4.451,4.451,0,0,0,7.98,1.65ZM6.76,3.94,4.36,6.16a.763.763,0,0,1-.51.2.742.742,0,0,1-.53-.22L2.21,5.03A.75.75,0,0,1,3.27,3.97l.6.6L5.74,2.84a.755.755,0,0,1,1.06.04A.737.737,0,0,1,6.76,3.94Z" transform="translate(14 14.02)" fill="#77c430"/>
</svg>
