<svg width="29.625977" height="27.353394" viewBox="0 0 29.626 27.3534" fill="none" xmlns="http://www.w3.org/2000/svg" xmlns:xlink="http://www.w3.org/1999/xlink">
	<desc>
			Created with Pixso.
	</desc>
	<defs/>
	<path id="Path 5" d="M10.6851 27.3534L22.937 27.3534C24.0552 27.3534 24.9741 26.6696 25.373 25.6866L29.4404 16.0416C29.5615 15.7282 29.6255 15.4005 29.6255 15.0444L29.6255 12.2948C29.6255 10.7917 28.4146 9.1178 26.9331 9.1178L18.4419 9.1178L19.7241 3.31232L19.7671 2.88492C19.7671 2.3222 19.5391 1.80933 19.1758 1.4389L17.7368 0L8.76172 9.06793C8.27734 9.55945 7.97803 10.2433 7.97803 10.9984L7.97803 24.675C7.97803 26.1781 9.20312 27.3534 10.6851 27.3534Z" fill-rule="nonzero" fill="#87C349"/>
	<path id="Path 6" d="M0 11.3972L4.55908 11.3972L4.55908 27.3534L0 27.3534L0 11.3972Z" fill-rule="nonzero" fill="#87C349"/>
</svg>
