<svg width="16.939453" height="16.939453" viewBox="0 0 16.9395 16.9395" fill="none" xmlns="http://www.w3.org/2000/svg" xmlns:xlink="http://www.w3.org/1999/xlink">
	<desc>
			Created with Pixso.
	</desc>
	<defs/>
	<path id="Icon material-shopping-cart" d="M5.08203 13.5518C4.15039 13.5518 3.39648 14.314 3.39648 15.2456C3.39648 16.1772 4.15039 16.9395 5.08203 16.9395C6.01367 16.9395 6.77588 16.1772 6.77588 15.2456C6.77588 14.314 6.01367 13.5518 5.08203 13.5518ZM0 0L0 1.69385L1.69385 1.69385L4.74316 8.12256L3.59961 10.1978C3.46436 10.4346 3.3877 10.7144 3.3877 11.0107C3.3877 11.9424 4.15039 12.7046 5.08203 12.7046L15.2456 12.7046L15.2456 11.0107L5.4375 11.0107C5.31885 11.0107 5.22607 10.9175 5.22607 10.7988L5.25146 10.6973L6.01367 9.31689L12.3237 9.31689C12.959 9.31689 13.5176 8.96973 13.8057 8.44434L16.8379 2.94727C16.9058 2.8291 16.9395 2.68506 16.9395 2.54102C16.9395 2.0752 16.5586 1.69385 16.0928 1.69385L3.56592 1.69385L2.76953 0L0 0ZM13.5518 13.5518C12.6201 13.5518 11.8662 14.314 11.8662 15.2456C11.8662 16.1772 12.6201 16.9395 13.5518 16.9395C14.4834 16.9395 15.2456 16.1772 15.2456 15.2456C15.2456 14.314 14.4834 13.5518 13.5518 13.5518Z" fill-rule="nonzero" fill="#ffffff"/>
</svg>
