<svg width="14.886230" height="18.143066" viewBox="0 0 14.8862 18.1431" fill="none" xmlns="http://www.w3.org/2000/svg" xmlns:xlink="http://www.w3.org/1999/xlink">
	<desc>
			Created with Pixso.
	</desc>
	<defs/>
	<path id="Icon material-notifications" d="M7.44336 18.1431C8.4668 18.1431 9.3042 17.3057 9.3042 16.2822L5.58252 16.2822C5.58252 17.3057 6.41064 18.1431 7.44336 18.1431ZM13.0254 12.5605L13.0254 7.9082C13.0254 5.05225 11.5 2.66113 8.83887 2.02832L8.83887 1.39551C8.83887 0.623535 8.21533 0 7.44336 0C6.6709 0 6.04785 0.623535 6.04785 1.39551L6.04785 2.02832C3.37744 2.66113 1.86084 5.04297 1.86084 7.9082L1.86084 12.5605L0 14.4214L0 15.3516L14.8862 15.3516L14.8862 14.4214L13.0254 12.5605Z" fill-rule="nonzero" fill="#ffffff"/>
</svg>
