<svg width="18.035156" height="18.035156" viewBox="0 0 18.0352 18.0352" fill="none" xmlns="http://www.w3.org/2000/svg" xmlns:xlink="http://www.w3.org/1999/xlink">
	<desc>
			Created with Pixso.
	</desc>
	<defs/>
	<path id="Icon awesome-user-alt" d="M9.01758 10.1448C11.8179 10.1448 14.0898 7.8728 14.0898 5.07239C14.0898 2.27197 11.8179 0 9.01758 0C6.21729 0 3.94531 2.27197 3.94531 5.07239C3.94531 7.8728 6.21729 10.1448 9.01758 10.1448ZM13.5264 11.272L11.5854 11.272C10.8032 11.6312 9.93359 11.8356 9.01758 11.8356C8.10156 11.8356 7.23535 11.6312 6.44971 11.272L4.50879 11.272C2.01855 11.272 0 13.2903 0 15.7808L0 16.3444C0 17.2778 0.757324 18.0352 1.69092 18.0352L16.3442 18.0352C17.2778 18.0352 18.0352 17.2778 18.0352 16.3444L18.0352 15.7808C18.0352 13.2903 16.0166 11.272 13.5264 11.272Z" fill-rule="nonzero" fill="#ffffff"/>
</svg>
